<?xml version="1.0" encoding="UTF-8"?><svg xmlns="http://www.w3.org/2000/svg" xmlns:xlink="http://www.w3.org/1999/xlink" version="1.1" id="Layer_1" x="0px" y="0px" viewBox="0 0 24 24" xml:space="preserve"><path fill="#303C42" d="M12 24c-2.253 0-4.447-.632-6.359-1.83l-4.27 1.065a.501.501 0 0 1-.603-.619l1.145-4.115A11.938 11.938 0 0 1 0 12C0 5.383 5.383 0 12 0s12 5.383 12 12-5.383 12-12 12z"/><path fill="#29B6F6" d="M5.729 21.132a.5.5 0 0 1 .273.081A10.952 10.952 0 0 0 12 23c6.065 0 11-4.935 11-11S18.065 1 12 1 1 5.935 1 12c0 2.198.647 4.32 1.87 6.136a.499.499 0 0 1 .067.413l-.975 3.508 3.646-.91a.51.51 0 0 1 .121-.015z"/><path opacity="0.1" d="M18.702 3.298A10.932 10.932 0 0 1 21 10c0 6.065-4.935 11-11 11-2.132 0-4.206-.618-5.998-1.787a.5.5 0 0 0-.394-.066l-.9.224-.746 2.686 3.646-.91a.51.51 0 0 1 .394.066A10.952 10.952 0 0 0 12 23c6.065 0 11-4.935 11-11 0-3.542-1.69-6.69-4.298-8.702z"/><path fill="#303C42" d="M17.5 10h-11a.5.5 0 1 1 0-1h11a.5.5 0 1 1 0 1z"/><path fill="#303C42" d="M17.5 13h-11a.5.5 0 1 1 0-1h11a.5.5 0 1 1 0 1z"/><path fill="#303C42" d="M12.5 16h-6a.5.5 0 1 1 0-1h6a.5.5 0 1 1 0 1z"/><linearGradient id="SVGID_1_" gradientUnits="userSpaceOnUse" x1="0.5361223" y1="8.1915436" x2="22.2862854" y2="18.3338108"><stop offset="0" stop-color="#FFF" stop-opacity="0.2"/><stop offset="1" stop-color="#FFF" stop-opacity="0"/></linearGradient><path fill="url(#SVGID_1_)" d="M12 24c-2.253 0-4.447-.632-6.359-1.83l-4.27 1.065a.5.5 0 0 1-.603-.62l1.145-4.114A11.938 11.938 0 0 1 0 12C0 5.383 5.383 0 12 0s12 5.383 12 12-5.383 12-12 12z"/><metadata><rdf:RDF xmlns:rdf="http://www.w3.org/1999/02/22-rdf-syntax-ns#" xmlns:rdfs="http://www.w3.org/2000/01/rdf-schema#" xmlns:dc="http://purl.org/dc/elements/1.1/"><rdf:Description about="https://iconscout.com/legal#licenses" dc:title="message,chat,bubble" dc:description="message,chat,bubble" dc:publisher="Iconscout" dc:date="2017-08-16" dc:format="image/svg+xml" dc:language="en"><dc:creator><rdf:Bag><rdf:li>Those Icons</rdf:li></rdf:Bag></dc:creator></rdf:Description></rdf:RDF></metadata></svg>